<svg xmlns="http://www.w3.org/2000/svg" xmlns:xlink="http://www.w3.org/1999/xlink" width="189" zoomAndPan="magnify"
  viewBox="0 0 141.75 155.999997" height="208" preserveAspectRatio="xMidYMid meet" version="1.0">
  <defs>

    <path id="textCurve" d="M 40,6 Q 200,250 350,6" />
    <clipPath id="a9a3755f54">
      <path d="M 0 0.136719 L 141.5 0.136719 L 141.5 155.863281 L 0 155.863281 Z M 0 0.136719 " clip-rule="nonzero" />
    </clipPath>
    <clipPath id="fe1cdbca4c">
      <path d="M 0 0.136719 L 141.5 0.136719 L 141.5 155.863281 L 0 155.863281 Z M 0 0.136719 " clip-rule="nonzero" />
    </clipPath>
    <clipPath id="6e38a7ded1">
      <path d="M 5.25 5.34375 L 99.777344 5.34375 L 99.777344 99.871094 L 5.25 99.871094 Z M 5.25 5.34375 "
        clip-rule="nonzero" />
    </clipPath>
    <clipPath id="ac60722509">
      <path
        d="M 52.511719 5.34375 C 26.410156 5.34375 5.25 26.503906 5.25 52.609375 C 5.25 78.710938 26.410156 99.871094 52.511719 99.871094 C 78.617188 99.871094 99.777344 78.710938 99.777344 52.609375 C 99.777344 26.503906 78.617188 5.34375 52.511719 5.34375 Z M 52.511719 5.34375 "
        clip-rule="nonzero" />
    </clipPath>
    <clipPath id="a9a300e67a">
      <path d="M 0.25 0.34375 L 94.777344 0.34375 L 94.777344 94.871094 L 0.25 94.871094 Z M 0.25 0.34375 "
        clip-rule="nonzero" />
    </clipPath>
    <clipPath id="eddc6349c0">
      <path
        d="M 47.511719 0.34375 C 21.410156 0.34375 0.25 21.503906 0.25 47.609375 C 0.25 73.710938 21.410156 94.871094 47.511719 94.871094 C 73.617188 94.871094 94.777344 73.710938 94.777344 47.609375 C 94.777344 21.503906 73.617188 0.34375 47.511719 0.34375 Z M 47.511719 0.34375 "
        clip-rule="nonzero" />
    </clipPath>
    <clipPath id="b0c9fa2f10">
      <rect x="0" width="95" y="0" height="95" />
    </clipPath>
    <clipPath id="6c49eb1dde">
      <path d="M 5.25 5.34375 L 99.734375 5.34375 L 99.734375 99.828125 L 5.25 99.828125 Z M 5.25 5.34375 "
        clip-rule="nonzero" />
    </clipPath>
    <clipPath id="42c488ae66">
      <path
        d="M 52.511719 5.34375 C 26.410156 5.34375 5.25 26.503906 5.25 52.605469 C 5.25 78.707031 26.410156 99.867188 52.511719 99.867188 C 78.613281 99.867188 99.773438 78.707031 99.773438 52.605469 C 99.773438 26.503906 78.613281 5.34375 52.511719 5.34375 Z M 52.511719 5.34375 "
        clip-rule="nonzero" />
    </clipPath>
    <clipPath id="658fd43801">
      <path
        d="M 8.203125 8.300781 L 96.820312 8.300781 L 96.820312 96.914062 L 8.203125 96.914062 Z M 8.203125 8.300781 "
        clip-rule="nonzero" />
    </clipPath>
    <clipPath id="d168c0658c">
      <path
        d="M 52.511719 8.300781 C 28.042969 8.300781 8.203125 28.136719 8.203125 52.609375 C 8.203125 77.078125 28.042969 96.914062 52.511719 96.914062 C 76.984375 96.914062 96.820312 77.078125 96.820312 52.609375 C 96.820312 28.136719 76.984375 8.300781 52.511719 8.300781 Z M 52.511719 8.300781 "
        clip-rule="nonzero" />
    </clipPath>
    <clipPath id="470da42160">
      <path
        d="M 0.203125 0.300781 L 88.820312 0.300781 L 88.820312 88.914062 L 0.203125 88.914062 Z M 0.203125 0.300781 "
        clip-rule="nonzero" />
    </clipPath>
    <clipPath id="d0ebccfcd9">
      <path
        d="M 44.511719 0.300781 C 20.042969 0.300781 0.203125 20.136719 0.203125 44.609375 C 0.203125 69.078125 20.042969 88.914062 44.511719 88.914062 C 68.984375 88.914062 88.820312 69.078125 88.820312 44.609375 C 88.820312 20.136719 68.984375 0.300781 44.511719 0.300781 Z M 44.511719 0.300781 "
        clip-rule="nonzero" />
    </clipPath>
    <clipPath id="421b082abc">
      <rect x="0" width="89" y="0" height="89" />
    </clipPath>
    <clipPath id="2563e3320d">
      <path
        d="M 8.691406 8.785156 L 96.335938 8.785156 L 96.335938 96.429688 L 8.691406 96.429688 Z M 8.691406 8.785156 "
        clip-rule="nonzero" />
    </clipPath>
    <clipPath id="82dc02d151">
      <path
        d="M 52.511719 8.835938 C 28.339844 8.835938 8.742188 28.433594 8.742188 52.609375 C 8.742188 76.78125 28.339844 96.378906 52.511719 96.378906 C 76.6875 96.378906 96.28125 76.78125 96.28125 52.609375 C 96.28125 28.433594 76.6875 8.835938 52.511719 8.835938 Z M 52.511719 8.835938 "
        clip-rule="nonzero" />
    </clipPath>
    <clipPath id="42598f530e">
      <path d="M 1 1 L 88 1 L 88 88 L 1 88 Z M 1 1 " clip-rule="nonzero" />
    </clipPath>
    <clipPath id="bad491c372">
      <path
        d="M 44.511719 0.835938 C 20.339844 0.835938 0.742188 20.433594 0.742188 44.609375 C 0.742188 68.78125 20.339844 88.378906 44.511719 88.378906 C 68.6875 88.378906 88.28125 68.78125 88.28125 44.609375 C 88.28125 20.433594 68.6875 0.835938 44.511719 0.835938 Z M 44.511719 0.835938 "
        clip-rule="nonzero" />
    </clipPath>
    <clipPath id="38d3736b0e">
      <rect x="0" width="89" y="0" height="89" />
    </clipPath>
    <clipPath id="18ebea4f2c">
      <rect x="0" width="105" y="0" height="105" />
    </clipPath>
    <clipPath id="5c9d6129ed">
      <path d="M 6 6 L 37 6 L 37 38 L 6 38 Z M 6 6 " clip-rule="nonzero" />
    </clipPath>
    <clipPath id="504a827992">
      <path
        d="M 18.839844 43.371094 L 0.609375 19.160156 L 24.820312 0.929688 L 43.050781 25.140625 Z M 18.839844 43.371094 "
        clip-rule="nonzero" />
    </clipPath>
    <clipPath id="d3b5eab48e">
      <path
        d="M 9.722656 31.265625 C 14.757812 37.953125 24.261719 39.292969 30.945312 34.257812 C 37.632812 29.222656 38.96875 19.722656 33.9375 13.035156 C 28.902344 6.351562 19.398438 5.011719 12.714844 10.046875 C 6.027344 15.082031 4.691406 24.582031 9.722656 31.265625 Z M 9.722656 31.265625 "
        clip-rule="nonzero" />
    </clipPath>
    <clipPath id="1a269af52c">
      <path d="M 0 0 L 31 0 L 31 32 L 0 32 Z M 0 0 " clip-rule="nonzero" />
    </clipPath>
    <clipPath id="a915dbedca">
      <path
        d="M 12.839844 37.371094 L -5.390625 13.160156 L 18.820312 -5.070312 L 37.050781 19.140625 Z M 12.839844 37.371094 "
        clip-rule="nonzero" />
    </clipPath>
    <clipPath id="14b8dc7ad6">
      <path
        d="M 3.722656 25.265625 C 8.757812 31.953125 18.261719 33.292969 24.945312 28.257812 C 31.632812 23.222656 32.96875 13.722656 27.9375 7.035156 C 22.902344 0.351562 13.398438 -0.988281 6.714844 4.046875 C 0.0273438 9.082031 -1.308594 18.582031 3.722656 25.265625 Z M 3.722656 25.265625 "
        clip-rule="nonzero" />
    </clipPath>
    <clipPath id="c303bd93d7">
      <rect x="0" width="31" y="0" height="32" />
    </clipPath>
    <clipPath id="931427b444">
      <path d="M 7 7 L 37 7 L 37 37 L 7 37 Z M 7 7 " clip-rule="nonzero" />
    </clipPath>
    <clipPath id="469d621255">
      <path d="M 19 42.21875 L 1.753906 19.316406 L 24.65625 2.070312 L 41.902344 24.972656 Z M 19 42.21875 "
        clip-rule="nonzero" />
    </clipPath>
    <clipPath id="c08c4d1b27">
      <path
        d="M 10.378906 30.765625 C 15.140625 37.089844 24.125 38.355469 30.449219 33.59375 C 36.773438 28.832031 38.039062 19.84375 33.277344 13.523438 C 28.515625 7.199219 19.527344 5.929688 13.207031 10.695312 C 6.882812 15.457031 5.613281 24.441406 10.378906 30.765625 Z M 10.378906 30.765625 "
        clip-rule="nonzero" />
    </clipPath>
    <clipPath id="03b903744a">
      <path d="M 0 0 L 30 0 L 30 30 L 0 30 Z M 0 0 " clip-rule="nonzero" />
    </clipPath>
    <clipPath id="339ee16d20">
      <path d="M 12 35.21875 L -5.246094 12.316406 L 17.65625 -4.929688 L 34.902344 17.972656 Z M 12 35.21875 "
        clip-rule="nonzero" />
    </clipPath>
    <clipPath id="bbcf4d06dc">
      <path
        d="M 3.378906 23.765625 C 8.140625 30.089844 17.125 31.355469 23.449219 26.59375 C 29.773438 21.832031 31.039062 12.84375 26.277344 6.523438 C 21.515625 0.199219 12.527344 -1.070312 6.207031 3.695312 C -0.117188 8.457031 -1.386719 17.441406 3.378906 23.765625 Z M 3.378906 23.765625 "
        clip-rule="nonzero" />
    </clipPath>
    <clipPath id="98f942f3f7">
      <rect x="0" width="30" y="0" height="30" />
    </clipPath>
    <clipPath id="8168616d70">
      <path d="M 7 7 L 37 7 L 37 37 L 7 37 Z M 7 7 " clip-rule="nonzero" />
    </clipPath>
    <clipPath id="a7e8e42528">
      <path d="M 19 42.21875 L 1.660156 19.191406 L 24.6875 1.851562 L 42.027344 24.878906 Z M 19 42.21875 "
        clip-rule="nonzero" />
    </clipPath>
    <clipPath id="89011f9d72">
      <path d="M 19 42.21875 L 1.761719 19.328125 L 24.652344 2.089844 L 41.890625 24.980469 Z M 19 42.21875 "
        clip-rule="nonzero" />
    </clipPath>
    <clipPath id="f04b51ff6f">
      <path
        d="M 10.382812 30.773438 C 15.140625 37.09375 24.125 38.359375 30.445312 33.597656 C 36.765625 28.839844 38.03125 19.855469 33.269531 13.535156 C 28.511719 7.214844 19.527344 5.949219 13.207031 10.710938 C 6.886719 15.46875 5.621094 24.453125 10.382812 30.773438 Z M 10.382812 30.773438 "
        clip-rule="nonzero" />
    </clipPath>
    <clipPath id="a08321e302">
      <path d="M 8 8 L 36 8 L 36 36 L 8 36 Z M 8 8 " clip-rule="nonzero" />
    </clipPath>
    <clipPath id="c9ab8b303f">
      <path d="M 19.164062 41.078125 L 3.023438 19.640625 L 24.460938 3.5 L 40.601562 24.9375 Z M 19.164062 41.078125 "
        clip-rule="nonzero" />
    </clipPath>
    <clipPath id="a682249ed6">
      <path
        d="M 19.164062 41.078125 L 2.910156 19.492188 L 24.496094 3.238281 L 40.753906 24.824219 Z M 19.164062 41.078125 "
        clip-rule="nonzero" />
    </clipPath>
    <clipPath id="442ba2ff14">
      <path
        d="M 11.039062 30.285156 C 15.527344 36.246094 23.996094 37.441406 29.957031 32.953125 C 35.917969 28.464844 37.113281 19.992188 32.625 14.03125 C 28.136719 8.070312 19.664062 6.875 13.703125 11.367188 C 7.742188 15.855469 6.546875 24.324219 11.039062 30.285156 Z M 11.039062 30.285156 "
        clip-rule="nonzero" />
    </clipPath>
    <clipPath id="572aca7d95">
      <rect x="0" width="44" y="0" height="44" />
    </clipPath>
    <clipPath id="5d6fb83b38">
      <path d="M 6 7 L 38 7 L 38 38 L 6 38 Z M 6 7 " clip-rule="nonzero" />
    </clipPath>
    <clipPath id="28e617fbf7">
      <path
        d="M 18.996094 43.566406 L 0.765625 19.355469 L 24.976562 1.121094 L 43.210938 25.332031 Z M 18.996094 43.566406 "
        clip-rule="nonzero" />
    </clipPath>
    <clipPath id="72dbe1af41">
      <path
        d="M 9.882812 31.460938 C 14.917969 38.144531 24.417969 39.484375 31.105469 34.449219 C 37.789062 29.414062 39.128906 19.914062 34.09375 13.226562 C 29.058594 6.542969 19.558594 5.203125 12.871094 10.238281 C 6.1875 15.273438 4.847656 24.773438 9.882812 31.460938 Z M 9.882812 31.460938 "
        clip-rule="nonzero" />
    </clipPath>
    <clipPath id="58816e5a0e">
      <path d="M 0 0 L 32 0 L 32 31 L 0 31 Z M 0 0 " clip-rule="nonzero" />
    </clipPath>
    <clipPath id="962455a583">
      <path
        d="M 12.996094 36.566406 L -5.234375 12.355469 L 18.976562 -5.878906 L 37.210938 18.332031 Z M 12.996094 36.566406 "
        clip-rule="nonzero" />
    </clipPath>
    <clipPath id="de298a35b7">
      <path
        d="M 3.882812 24.460938 C 8.917969 31.144531 18.417969 32.484375 25.105469 27.449219 C 31.789062 22.414062 33.128906 12.914062 28.09375 6.226562 C 23.058594 -0.457031 13.558594 -1.796875 6.871094 3.238281 C 0.1875 8.273438 -1.152344 17.773438 3.882812 24.460938 Z M 3.882812 24.460938 "
        clip-rule="nonzero" />
    </clipPath>
    <clipPath id="c96f9c3c1b">
      <rect x="0" width="32" y="0" height="31" />
    </clipPath>
    <clipPath id="14d948bf91">
      <path d="M 7 8 L 37 8 L 37 37 L 7 37 Z M 7 8 " clip-rule="nonzero" />
    </clipPath>
    <clipPath id="d547794ea2">
      <path
        d="M 19.15625 42.410156 L 1.816406 19.382812 L 24.84375 2.042969 L 42.183594 25.070312 Z M 19.15625 42.410156 "
        clip-rule="nonzero" />
    </clipPath>
    <clipPath id="fc2863c853">
      <path
        d="M 19.15625 42.410156 L 1.921875 19.519531 L 24.8125 2.285156 L 42.046875 25.171875 Z M 19.15625 42.410156 "
        clip-rule="nonzero" />
    </clipPath>
    <clipPath id="eb0e2feb83">
      <path
        d="M 10.539062 30.964844 C 15.296875 37.285156 24.28125 38.550781 30.601562 33.789062 C 36.921875 29.03125 38.1875 20.046875 33.429688 13.726562 C 28.667969 7.40625 19.6875 6.140625 13.367188 10.902344 C 7.046875 15.660156 5.78125 24.644531 10.539062 30.964844 Z M 10.539062 30.964844 "
        clip-rule="nonzero" />
    </clipPath>
    <clipPath id="7cfaeb69d3">
      <path d="M 8 8 L 36 8 L 36 36 L 8 36 Z M 8 8 " clip-rule="nonzero" />
    </clipPath>
    <clipPath id="c69aa35ff2">
      <path
        d="M 19.324219 41.273438 L 3.179688 19.832031 L 24.617188 3.691406 L 40.761719 25.128906 Z M 19.324219 41.273438 "
        clip-rule="nonzero" />
    </clipPath>
    <clipPath id="4b8ea35513">
      <path
        d="M 19.324219 41.273438 L 3.066406 19.683594 L 24.65625 3.429688 L 40.910156 25.015625 Z M 19.324219 41.273438 "
        clip-rule="nonzero" />
    </clipPath>
    <clipPath id="0fc494f256">
      <path
        d="M 11.195312 30.476562 C 15.683594 36.441406 24.15625 37.632812 30.117188 33.144531 C 36.078125 28.65625 37.269531 20.183594 32.78125 14.222656 C 28.292969 8.261719 19.820312 7.070312 13.859375 11.558594 C 7.898438 16.046875 6.707031 24.515625 11.195312 30.476562 Z M 11.195312 30.476562 "
        clip-rule="nonzero" />
    </clipPath>
    <clipPath id="f675f40ae3">
      <rect x="0" width="44" y="0" height="44" />
    </clipPath>
    <clipPath id="3581536507">
      <path d="M 6 6 L 38 6 L 38 37 L 6 37 Z M 6 6 " clip-rule="nonzero" />
    </clipPath>
    <clipPath id="35ad0444fa">
      <path
        d="M 19.101562 42.835938 L 0.871094 18.625 L 25.082031 0.394531 L 43.3125 24.605469 Z M 19.101562 42.835938 "
        clip-rule="nonzero" />
    </clipPath>
    <clipPath id="5525fa9232">
      <path
        d="M 9.988281 30.730469 C 15.019531 37.414062 24.523438 38.753906 31.207031 33.71875 C 37.894531 28.683594 39.230469 19.183594 34.199219 12.5 C 29.164062 5.8125 19.664062 4.472656 12.976562 9.507812 C 6.289062 14.542969 4.953125 24.042969 9.988281 30.730469 Z M 9.988281 30.730469 "
        clip-rule="nonzero" />
    </clipPath>
    <clipPath id="cf41d8ba4a">
      <path d="M 0 0 L 32 0 L 32 31 L 0 31 Z M 0 0 " clip-rule="nonzero" />
    </clipPath>
    <clipPath id="f1136b276b">
      <path
        d="M 13.101562 36.835938 L -5.128906 12.625 L 19.082031 -5.605469 L 37.3125 18.605469 Z M 13.101562 36.835938 "
        clip-rule="nonzero" />
    </clipPath>
    <clipPath id="4e7b6cb9e4">
      <path
        d="M 3.988281 24.730469 C 9.019531 31.414062 18.523438 32.753906 25.207031 27.71875 C 31.894531 22.683594 33.230469 13.183594 28.199219 6.5 C 23.164062 -0.1875 13.664062 -1.527344 6.976562 3.507812 C 0.289062 8.542969 -1.046875 18.042969 3.988281 24.730469 Z M 3.988281 24.730469 "
        clip-rule="nonzero" />
    </clipPath>
    <clipPath id="38ccd15fd9">
      <rect x="0" width="32" y="0" height="31" />
    </clipPath>
    <clipPath id="e81fcd9c4c">
      <path d="M 7 7 L 37 7 L 37 36 L 7 36 Z M 7 7 " clip-rule="nonzero" />
    </clipPath>
    <clipPath id="392a59236d">
      <path
        d="M 19.261719 41.679688 L 2.015625 18.777344 L 24.917969 1.535156 L 42.164062 24.433594 Z M 19.261719 41.679688 "
        clip-rule="nonzero" />
    </clipPath>
    <clipPath id="00eeec9df1">
      <path
        d="M 10.640625 30.230469 C 15.402344 36.554688 24.386719 37.820312 30.710938 33.058594 C 37.035156 28.296875 38.300781 19.308594 33.539062 12.984375 C 28.777344 6.660156 19.792969 5.394531 13.46875 10.15625 C 7.144531 14.917969 5.878906 23.90625 10.640625 30.230469 Z M 10.640625 30.230469 "
        clip-rule="nonzero" />
    </clipPath>
    <clipPath id="b0e07fadf5">
      <path d="M 0 0 L 30 0 L 30 29 L 0 29 Z M 0 0 " clip-rule="nonzero" />
    </clipPath>
    <clipPath id="bcccd20f6f">
      <path
        d="M 12.261719 34.679688 L -4.984375 11.777344 L 17.917969 -5.464844 L 35.164062 17.433594 Z M 12.261719 34.679688 "
        clip-rule="nonzero" />
    </clipPath>
    <clipPath id="ad80398de7">
      <path
        d="M 3.640625 23.230469 C 8.402344 29.554688 17.386719 30.820312 23.710938 26.058594 C 30.035156 21.296875 31.300781 12.308594 26.539062 5.984375 C 21.777344 -0.339844 12.792969 -1.605469 6.46875 3.15625 C 0.144531 7.917969 -1.121094 16.90625 3.640625 23.230469 Z M 3.640625 23.230469 "
        clip-rule="nonzero" />
    </clipPath>
    <clipPath id="70b10ae3e1">
      <rect x="0" width="30" y="0" height="29" />
    </clipPath>
    <clipPath id="21e9483c3d">
      <path d="M 7 7 L 37 7 L 37 36 L 7 36 Z M 7 7 " clip-rule="nonzero" />
    </clipPath>
    <clipPath id="b53ed1e449">
      <path
        d="M 19.261719 41.679688 L 1.921875 18.652344 L 24.949219 1.316406 L 42.289062 24.339844 Z M 19.261719 41.679688 "
        clip-rule="nonzero" />
    </clipPath>
    <clipPath id="47ff509ecc">
      <path
        d="M 19.261719 41.679688 L 2.023438 18.789062 L 24.914062 1.554688 L 42.152344 24.445312 Z M 19.261719 41.679688 "
        clip-rule="nonzero" />
    </clipPath>
    <clipPath id="532f48b4b2">
      <path
        d="M 10.644531 30.234375 C 15.402344 36.554688 24.386719 37.820312 30.707031 33.0625 C 37.027344 28.300781 38.292969 19.320312 33.53125 13 C 28.773438 6.679688 19.789062 5.414062 13.46875 10.171875 C 7.148438 14.933594 5.882812 23.914062 10.644531 30.234375 Z M 10.644531 30.234375 "
        clip-rule="nonzero" />
    </clipPath>
    <clipPath id="12a2002a48">
      <path d="M 8 8 L 36 8 L 36 36 L 8 36 Z M 8 8 " clip-rule="nonzero" />
    </clipPath>
    <clipPath id="c217f36121">
      <path
        d="M 19.425781 40.542969 L 3.167969 18.953125 L 24.757812 2.691406 L 41.019531 24.285156 Z M 19.425781 40.542969 "
        clip-rule="nonzero" />
    </clipPath>
    <clipPath id="d5ba974c47">
      <path
        d="M 11.296875 29.746094 C 15.789062 35.710938 24.261719 36.902344 30.222656 32.414062 C 36.183594 27.921875 37.378906 19.449219 32.890625 13.488281 C 28.398438 7.527344 19.925781 6.332031 13.964844 10.824219 C 8.003906 15.3125 6.808594 23.785156 11.296875 29.746094 Z M 11.296875 29.746094 "
        clip-rule="nonzero" />
    </clipPath>
    <clipPath id="5d77b5d66a">
      <path d="M 0 0 L 28 0 L 28 28 L 0 28 Z M 0 0 " clip-rule="nonzero" />
    </clipPath>
    <clipPath id="6914c29a9b">
      <path
        d="M 11.425781 32.542969 L -4.832031 10.953125 L 16.757812 -5.308594 L 33.019531 16.285156 Z M 11.425781 32.542969 "
        clip-rule="nonzero" />
    </clipPath>
    <clipPath id="1dade5951c">
      <path
        d="M 3.296875 21.746094 C 7.789062 27.710938 16.261719 28.902344 22.222656 24.414062 C 28.183594 19.921875 29.378906 11.449219 24.890625 5.488281 C 20.398438 -0.472656 11.925781 -1.667969 5.964844 2.824219 C 0.00390625 7.3125 -1.191406 15.785156 3.296875 21.746094 Z M 3.296875 21.746094 "
        clip-rule="nonzero" />
    </clipPath>
    <clipPath id="24589ee660">
      <rect x="0" width="28" y="0" height="28" />
    </clipPath>
    <clipPath id="e12560db83">
      <path d="M 8 8 L 36 8 L 36 36 L 8 36 Z M 8 8 " clip-rule="nonzero" />
    </clipPath>
    <clipPath id="3b424b9078">
      <path
        d="M 19.425781 40.542969 L 3.285156 19.105469 L 24.722656 2.960938 L 40.863281 24.398438 Z M 19.425781 40.542969 "
        clip-rule="nonzero" />
    </clipPath>
    <clipPath id="0e177c8597">
      <path
        d="M 19.425781 40.542969 L 3.171875 18.957031 L 24.757812 2.699219 L 41.015625 24.289062 Z M 19.425781 40.542969 "
        clip-rule="nonzero" />
    </clipPath>
    <clipPath id="d92f50dc7f">
      <path
        d="M 11.300781 29.75 C 15.789062 35.710938 24.257812 36.902344 30.21875 32.414062 C 36.179688 27.925781 37.375 19.453125 32.886719 13.492188 C 28.398438 7.53125 19.925781 6.339844 13.964844 10.828125 C 8.003906 15.316406 6.8125 23.789062 11.300781 29.75 Z M 11.300781 29.75 "
        clip-rule="nonzero" />
    </clipPath>
    <clipPath id="99cb2c0d42">
      <rect x="0" width="44" y="0" height="44" />
    </clipPath>
    <clipPath id="44e393f02d">
      <path d="M 7 8 L 44 8 L 44 45 L 7 45 Z M 7 8 " clip-rule="nonzero" />
    </clipPath>
    <clipPath id="7aa94ea8d8">
      <path
        d="M 22.144531 51.371094 L 0.503906 22.632812 L 29.242188 0.996094 L 50.882812 29.730469 Z M 22.144531 51.371094 "
        clip-rule="nonzero" />
    </clipPath>
    <clipPath id="93366832fa">
      <path
        d="M 11.324219 37.003906 C 17.300781 44.9375 28.578125 46.527344 36.511719 40.550781 C 44.449219 34.574219 46.039062 23.296875 40.0625 15.363281 C 34.085938 7.425781 22.808594 5.839844 14.875 11.8125 C 6.9375 17.789062 5.351562 29.066406 11.324219 37.003906 Z M 11.324219 37.003906 "
        clip-rule="nonzero" />
    </clipPath>
    <clipPath id="80a634a5bb">
      <path d="M 0 0 L 37 0 L 37 37 L 0 37 Z M 0 0 " clip-rule="nonzero" />
    </clipPath>
    <clipPath id="a769c33c8c">
      <path
        d="M 15.144531 43.371094 L -6.496094 14.632812 L 22.242188 -7.003906 L 43.882812 21.730469 Z M 15.144531 43.371094 "
        clip-rule="nonzero" />
    </clipPath>
    <clipPath id="c32a5be3a7">
      <path
        d="M 4.324219 29.003906 C 10.300781 36.9375 21.578125 38.527344 29.511719 32.550781 C 37.449219 26.574219 39.039062 15.296875 33.0625 7.363281 C 27.085938 -0.574219 15.808594 -2.160156 7.875 3.8125 C -0.0625 9.789062 -1.648438 21.066406 4.324219 29.003906 Z M 4.324219 29.003906 "
        clip-rule="nonzero" />
    </clipPath>
    <clipPath id="963e155daa">
      <rect x="0" width="37" y="0" height="37" />
    </clipPath>
    <clipPath id="5c85edb099">
      <path d="M 8 9 L 43 9 L 43 44 L 8 44 Z M 8 9 " clip-rule="nonzero" />
    </clipPath>
    <clipPath id="6666153403">
      <path d="M 22.335938 50 L 1.753906 22.667969 L 29.085938 2.089844 L 49.664062 29.417969 Z M 22.335938 50 "
        clip-rule="nonzero" />
    </clipPath>
    <clipPath id="145430dfc4">
      <path d="M 22.335938 50 L 1.875 22.832031 L 29.042969 2.371094 L 49.503906 29.539062 Z M 22.335938 50 "
        clip-rule="nonzero" />
    </clipPath>
    <clipPath id="684457bb04">
      <path
        d="M 12.105469 36.414062 C 17.753906 43.917969 28.414062 45.417969 35.917969 39.769531 C 43.421875 34.121094 44.921875 23.460938 39.273438 15.957031 C 33.625 8.453125 22.960938 6.953125 15.460938 12.601562 C 7.957031 18.25 6.457031 28.914062 12.105469 36.414062 Z M 12.105469 36.414062 "
        clip-rule="nonzero" />
    </clipPath>
    <clipPath id="cb38e5788d">
      <path d="M 9 10 L 42 10 L 42 43 L 9 43 Z M 9 10 " clip-rule="nonzero" />
    </clipPath>
    <clipPath id="133b72636b">
      <path
        d="M 22.53125 48.648438 L 3.371094 23.203125 L 28.816406 4.042969 L 47.976562 29.488281 Z M 22.53125 48.648438 "
        clip-rule="nonzero" />
    </clipPath>
    <clipPath id="1b9343681c">
      <path
        d="M 22.53125 48.648438 L 3.238281 23.027344 L 28.859375 3.734375 L 48.152344 29.355469 Z M 22.53125 48.648438 "
        clip-rule="nonzero" />
    </clipPath>
    <clipPath id="effc0b15d2">
      <path
        d="M 12.882812 35.839844 C 18.210938 42.914062 28.265625 44.332031 35.339844 39.003906 C 42.417969 33.675781 43.832031 23.621094 38.507812 16.542969 C 33.179688 9.46875 23.125 8.050781 16.046875 13.378906 C 8.972656 18.707031 7.554688 28.761719 12.882812 35.839844 Z M 12.882812 35.839844 "
        clip-rule="nonzero" />
    </clipPath>
    <clipPath id="255ad43869">
      <rect x="0" width="51" y="0" height="52" />
    </clipPath>
    <clipPath id="dfe40e0714">
      <path d="M 7 7 L 38 7 L 38 38 L 7 38 Z M 7 7 " clip-rule="nonzero" />
    </clipPath>
    <clipPath id="e1649fb1de">
      <path
        d="M 19.296875 43.554688 L 1.066406 19.34375 L 25.277344 1.113281 L 43.507812 25.324219 Z M 19.296875 43.554688 "
        clip-rule="nonzero" />
    </clipPath>
    <clipPath id="70e3c67a2d">
      <path
        d="M 10.183594 31.449219 C 15.214844 38.136719 24.71875 39.472656 31.402344 34.4375 C 38.089844 29.40625 39.429688 19.902344 34.394531 13.21875 C 29.359375 6.53125 19.859375 5.191406 13.171875 10.226562 C 6.488281 15.261719 5.148438 24.761719 10.183594 31.449219 Z M 10.183594 31.449219 "
        clip-rule="nonzero" />
    </clipPath>
    <clipPath id="d7bde5ccd6">
      <path d="M 0 0 L 31 0 L 31 31 L 0 31 Z M 0 0 " clip-rule="nonzero" />
    </clipPath>
    <clipPath id="f498dbdfa0">
      <path
        d="M 12.296875 36.554688 L -5.933594 12.34375 L 18.277344 -5.886719 L 36.507812 18.324219 Z M 12.296875 36.554688 "
        clip-rule="nonzero" />
    </clipPath>
    <clipPath id="ac0f1ef16c">
      <path
        d="M 3.183594 24.449219 C 8.214844 31.136719 17.71875 32.472656 24.402344 27.4375 C 31.089844 22.40625 32.429688 12.902344 27.394531 6.21875 C 22.359375 -0.46875 12.859375 -1.808594 6.171875 3.226562 C -0.511719 8.261719 -1.851562 17.761719 3.183594 24.449219 Z M 3.183594 24.449219 "
        clip-rule="nonzero" />
    </clipPath>
    <clipPath id="7db9b41ee5">
      <rect x="0" width="31" y="0" height="31" />
    </clipPath>
    <clipPath id="5427da4df0">
      <path d="M 7 7 L 37 7 L 37 37 L 7 37 Z M 7 7 " clip-rule="nonzero" />
    </clipPath>
    <clipPath id="ac9835d676">
      <path
        d="M 19.457031 42.398438 L 2.210938 19.496094 L 25.113281 2.253906 L 42.359375 25.152344 Z M 19.457031 42.398438 "
        clip-rule="nonzero" />
    </clipPath>
    <clipPath id="c742dc3b89">
      <path
        d="M 10.835938 30.949219 C 15.597656 37.273438 24.582031 38.539062 30.90625 33.777344 C 37.230469 29.015625 38.5 20.027344 33.734375 13.703125 C 28.972656 7.378906 19.988281 6.113281 13.664062 10.875 C 7.339844 15.636719 6.074219 24.625 10.835938 30.949219 Z M 10.835938 30.949219 "
        clip-rule="nonzero" />
    </clipPath>
    <clipPath id="fc941c7603">
      <path d="M 0 0 L 30 0 L 30 30 L 0 30 Z M 0 0 " clip-rule="nonzero" />
    </clipPath>
    <clipPath id="d476842e32">
      <path
        d="M 12.457031 35.398438 L -4.789062 12.496094 L 18.113281 -4.746094 L 35.359375 18.152344 Z M 12.457031 35.398438 "
        clip-rule="nonzero" />
    </clipPath>
    <clipPath id="cd37a87d0c">
      <path
        d="M 3.835938 23.949219 C 8.597656 30.273438 17.582031 31.539062 23.90625 26.777344 C 30.230469 22.015625 31.5 13.027344 26.734375 6.703125 C 21.972656 0.378906 12.988281 -0.886719 6.664062 3.875 C 0.339844 8.636719 -0.925781 17.625 3.835938 23.949219 Z M 3.835938 23.949219 "
        clip-rule="nonzero" />
    </clipPath>
    <clipPath id="c1eb3a6e6d">
      <rect x="0" width="30" y="0" height="30" />
    </clipPath>
    <clipPath id="2c24a9fef0">
      <path d="M 7 8 L 37 8 L 37 37 L 7 37 Z M 7 8 " clip-rule="nonzero" />
    </clipPath>
    <clipPath id="d0a84ec276">
      <path
        d="M 19.457031 42.398438 L 2.117188 19.371094 L 25.144531 2.035156 L 42.484375 25.058594 Z M 19.457031 42.398438 "
        clip-rule="nonzero" />
    </clipPath>
    <clipPath id="e72c07c8ac">
      <path
        d="M 19.457031 42.398438 L 2.222656 19.507812 L 25.109375 2.273438 L 42.347656 25.164062 Z M 19.457031 42.398438 "
        clip-rule="nonzero" />
    </clipPath>
    <clipPath id="d3cdc59217">
      <path
        d="M 10.839844 30.953125 C 15.597656 37.273438 24.582031 38.539062 30.902344 33.78125 C 37.222656 29.019531 38.488281 20.039062 33.730469 13.71875 C 28.96875 7.398438 19.988281 6.132812 13.664062 10.890625 C 7.34375 15.652344 6.078125 24.632812 10.839844 30.953125 Z M 10.839844 30.953125 "
        clip-rule="nonzero" />
    </clipPath>
    <clipPath id="38418ee7e5">
      <path d="M 8 8 L 36 8 L 36 36 L 8 36 Z M 8 8 " clip-rule="nonzero" />
    </clipPath>
    <clipPath id="bf67e4fcc0">
      <path
        d="M 19.621094 41.261719 L 3.363281 19.671875 L 24.957031 3.414062 L 41.214844 25.003906 Z M 19.621094 41.261719 "
        clip-rule="nonzero" />
    </clipPath>
    <clipPath id="d41cb20884">
      <path
        d="M 11.492188 30.464844 C 15.984375 36.429688 24.457031 37.621094 30.417969 33.132812 C 36.378906 28.644531 37.574219 20.171875 33.085938 14.207031 C 28.59375 8.246094 20.121094 7.050781 14.160156 11.542969 C 8.199219 16.03125 7.003906 24.503906 11.492188 30.464844 Z M 11.492188 30.464844 "
        clip-rule="nonzero" />
    </clipPath>
    <clipPath id="53cbfd637d">
      <path d="M 0 0 L 28 0 L 28 28 L 0 28 Z M 0 0 " clip-rule="nonzero" />
    </clipPath>
    <clipPath id="f0ba94051d">
      <path
        d="M 11.621094 33.261719 L -4.636719 11.671875 L 16.957031 -4.585938 L 33.214844 17.003906 Z M 11.621094 33.261719 "
        clip-rule="nonzero" />
    </clipPath>
    <clipPath id="df6833093e">
      <path
        d="M 3.492188 22.464844 C 7.984375 28.429688 16.457031 29.621094 22.417969 25.132812 C 28.378906 20.644531 29.574219 12.171875 25.085938 6.207031 C 20.59375 0.246094 12.121094 -0.949219 6.160156 3.542969 C 0.199219 8.03125 -0.996094 16.503906 3.492188 22.464844 Z M 3.492188 22.464844 "
        clip-rule="nonzero" />
    </clipPath>
    <clipPath id="8ba4fcde6f">
      <rect x="0" width="28" y="0" height="28" />
    </clipPath>
    <clipPath id="f39806cc76">
      <path d="M 8 8 L 36 8 L 36 36 L 8 36 Z M 8 8 " clip-rule="nonzero" />
    </clipPath>
    <clipPath id="7025e74778">
      <path
        d="M 19.621094 41.261719 L 3.480469 19.824219 L 24.917969 3.679688 L 41.0625 25.117188 Z M 19.621094 41.261719 "
        clip-rule="nonzero" />
    </clipPath>
    <clipPath id="13e674b930">
      <path
        d="M 19.621094 41.261719 L 3.367188 19.675781 L 24.953125 3.417969 L 41.210938 25.007812 Z M 19.621094 41.261719 "
        clip-rule="nonzero" />
    </clipPath>
    <clipPath id="9e2ac136e1">
      <path
        d="M 11.496094 30.46875 C 15.984375 36.429688 24.457031 37.621094 30.417969 33.132812 C 36.378906 28.644531 37.570312 20.175781 33.082031 14.214844 C 28.59375 8.253906 20.121094 7.058594 14.160156 11.546875 C 8.199219 16.035156 7.007812 24.507812 11.496094 30.46875 Z M 11.496094 30.46875 "
        clip-rule="nonzero" />
    </clipPath>
    <clipPath id="63ebb67b45">
      <rect x="0" width="44" y="0" height="44" />
    </clipPath>
    <clipPath id="94a8c0576a">
      <path d="M 0.269531 1 L 39.558594 1 L 39.558594 22 L 0.269531 22 Z M 0.269531 1 " clip-rule="nonzero" />
    </clipPath>
    <clipPath id="052c112ebe">
      <rect x="0" width="40" y="0" height="23" />
    </clipPath>
    <clipPath id="dc77ddcce2">
      <rect x="0" width="10" y="0" height="9" />
    </clipPath>
    <clipPath id="1211dfb629">
      <rect x="0" width="22" y="0" height="12" />
    </clipPath>
    <clipPath id="d14502f379">
      <path d="M 0.351562 2 L 5 2 L 5 8 L 0.351562 8 Z M 0.351562 2 " clip-rule="nonzero" />
    </clipPath>
    <clipPath id="f09e766481">
      <path d="M 4 3 L 8.976562 3 L 8.976562 9 L 4 9 Z M 4 3 " clip-rule="nonzero" />
    </clipPath>
    <clipPath id="20eee3322d">
      <rect x="0" width="9" y="0" height="10" />
    </clipPath>
    <clipPath id="a2f3254fa9">
      <rect x="0" width="27" y="0" height="14" />
    </clipPath>
    <clipPath id="f98166329d">
      <rect x="0" width="10" y="0" height="9" />
    </clipPath>
    <clipPath id="f303489784">
      <rect x="0" width="23" y="0" height="12" />
    </clipPath>
    <clipPath id="c64f98c637">
      <rect x="0" width="26" y="0" height="13" />
    </clipPath>
    <clipPath id="5e369684d2">
      <path d="M 0.0390625 2 L 5 2 L 5 7 L 0.0390625 7 Z M 0.0390625 2 " clip-rule="nonzero" />
    </clipPath>
    <clipPath id="ddfb4d1d65">
      <rect x="0" width="9" y="0" height="9" />
    </clipPath>
    <clipPath id="0e3325ecea">
      <rect x="0" width="16" y="0" height="11" />
    </clipPath>
    <clipPath id="1394a74e13">
      <path d="M 0.199219 2 L 5 2 L 5 8 L 0.199219 8 Z M 0.199219 2 " clip-rule="nonzero" />
    </clipPath>
    <clipPath id="9ae51d2b5b">
      <rect x="0" width="6" y="0" height="11" />
    </clipPath>
    <clipPath id="084de2102c">
      <rect x="0" width="142" y="0" height="156" />
    </clipPath>
  </defs>
  <g clip-path="url(#a9a3755f54)">
    <path fill="#ffffff" d="M 0 0.136719 L 141.5 0.136719 L 141.5 155.863281 L 0 155.863281 Z M 0 0.136719 "
      fill-opacity="1" fill-rule="nonzero" />
    <g transform="matrix(1, 0, 0, 1, 0, -0.000000000000021816)">
      <g clip-path="url(#084de2102c)">
        <g clip-path="url(#fe1cdbca4c)">
          <path fill="[[COLOR_BG]]"
            d="M 0 0.136719 L 141.519531 0.136719 L 141.519531 155.882812 L 0 155.882812 Z M 0 0.136719 "
            fill-opacity="1" fill-rule="nonzero" />
        </g>
        <g transform="matrix(1, 0, 0, 1, 18, 31)">
          <g clip-path="url(#18ebea4f2c)">
            <g clip-path="url(#6e38a7ded1)">
              <g clip-path="url(#ac60722509)">
                <g transform="matrix(1, 0, 0, 1, 5, 5)">
                  <g clip-path="url(#b0c9fa2f10)">
                    <g clip-path="url(#a9a300e67a)">
                      <g clip-path="url(#eddc6349c0)">
                        <path fill="[[COLOR_CIRCLE]]"
                          d="M 0.25 0.34375 L 94.777344 0.34375 L 94.777344 94.871094 L 0.25 94.871094 Z M 0.25 0.34375 "
                          fill-opacity="1" fill-rule="nonzero" />
                      </g>
                    </g>
                  </g>
                </g>
              </g>
            </g>
            <g clip-path="url(#6c49eb1dde)">
              <g clip-path="url(#42c488ae66)">
                <path stroke-linecap="butt" transform="matrix(0.502584, 0, 0, 0.502584, 5.248163, 5.343328)" fill="none"
                  stroke-linejoin="miter"
                  d="M 94.041182 0.000838979 C 42.106414 0.000838979 0.00365452 42.103598 0.00365452 94.038366 C 0.00365452 145.973135 42.106414 188.075894 94.041182 188.075894 C 145.97595 188.075894 188.07871 145.973135 188.07871 94.038366 C 188.07871 42.103598 145.97595 0.000838979 94.041182 0.000838979 Z M 94.041182 0.000838979 "
                  stroke="#ffffff" stroke-width="2.979696" stroke-opacity="1" stroke-miterlimit="4" />
              </g>
            </g>
            <g clip-path="url(#658fd43801)">
              <g clip-path="url(#d168c0658c)">
                <g transform="matrix(1, 0, 0, 1, 8, 8)">
                  <g clip-path="url(#421b082abc)">
                    <g clip-path="url(#470da42160)">
                      <g clip-path="url(#d0ebccfcd9)">
                        <path fill="#ffffff"
                          d="M 0.203125 0.300781 L 88.820312 0.300781 L 88.820312 88.914062 L 0.203125 88.914062 Z M 0.203125 0.300781 "
                          fill-opacity="1" fill-rule="nonzero" />
                      </g>
                    </g>
                  </g>
                </g>
              </g>
            </g>
            <g clip-path="url(#2563e3320d)">
              <g clip-path="url(#82dc02d151)">
                <g transform="matrix(1, 0, 0, 1, 8, 8)">
                  <g clip-path="url(#38d3736b0e)">
                    <g clip-path="url(#42598f530e)">
                      <g clip-path="url(#bad491c372)">
                        <g transform="matrix(0.171021, 0, 0, 0.171021, 0.742442, 0.837606)">
                          <image x="0" y="0" width="512"
                            href="[[IMAGE_HREF]]"
                            height="512" preserveAspectRatio="xMidYMid meet" />
                        </g>
                      </g>
                    </g>
                  </g>
                </g>
              </g>
            </g>
          </g>
        </g>
        <g transform="matrix(1, 0, 0, 1, 94, 33)">
          <g clip-path="url(#572aca7d95)">
            <g clip-path="url(#5c9d6129ed)">
              <g clip-path="url(#504a827992)">
                <g clip-path="url(#d3b5eab48e)">
                  <g transform="matrix(1, 0, 0, 1, 6, 6)">
                    <g clip-path="url(#c303bd93d7)">
                      <g clip-path="url(#1a269af52c)">
                        <g clip-path="url(#a915dbedca)">
                          <g clip-path="url(#14b8dc7ad6)">
                            <path fill="#000000"
                              d="M 12.839844 37.371094 L -5.390625 13.160156 L 18.820312 -5.070312 L 37.050781 19.140625 Z M 12.839844 37.371094 "
                              fill-opacity="1" fill-rule="nonzero" />
                          </g>
                        </g>
                      </g>
                    </g>
                  </g>
                </g>
              </g>
            </g>
            <g clip-path="url(#931427b444)">
              <g clip-path="url(#469d621255)">
                <g clip-path="url(#c08c4d1b27)">
                  <g transform="matrix(1, 0, 0, 1, 7, 7)">
                    <g clip-path="url(#98f942f3f7)">
                      <g clip-path="url(#03b903744a)">
                        <g clip-path="url(#339ee16d20)">
                          <g clip-path="url(#bbcf4d06dc)">
                            <path fill="#000000"
                              d="M 12 35.21875 L -5.246094 12.316406 L 17.65625 -4.929688 L 34.902344 17.972656 Z M 12 35.21875 "
                              fill-opacity="1" fill-rule="nonzero" />
                            <text x="12" y="15" font-family="'Proxima Nova', Helvetica, Arial, sans-serif"
                              font-size="6.7" fill="#ffffff" text-anchor="middle" font-weight="normal">
                              <tspan x="15" dy="0">[[FIBRES]]</tspan>
                            </text>
                          </g>
                        </g>
                      </g>
                    </g>
                  </g>
                </g>
              </g>
            </g>
            <g clip-path="url(#8168616d70)">
              <g clip-path="url(#a7e8e42528)">
                <g clip-path="url(#89011f9d72)">
                  <g clip-path="url(#f04b51ff6f)">
                    <path stroke-linecap="butt"
                      transform="matrix(-0.597896, -0.794002, 0.794002, -0.597896, 18.999549, 42.217022)" fill="none"
                      stroke-linejoin="miter"
                      d="M 14.412254 0.000372193 C 6.453082 -0.000819222 -0.00152531 6.454061 0.000422771 14.415596 C -0.000768645 22.374767 6.454111 28.829375 14.415647 28.827427 C 22.374818 28.828618 28.829426 22.373739 28.827478 14.412203 C 28.828669 6.453032 22.373789 -0.00157589 14.412254 0.000372193 Z M 14.412254 0.000372193 "
                      stroke="#ffffff" stroke-width="0.226001" stroke-opacity="1" stroke-miterlimit="4" />

                  </g>
                </g>
              </g>
            </g>
            <g clip-path="url(#a08321e302)">
              <g clip-path="url(#c9ab8b303f)">
                <g clip-path="url(#a682249ed6)">
                  <g clip-path="url(#442ba2ff14)">
                  </g>
                </g>
              </g>
            </g>
          </g>
        </g>
        <g transform="matrix(1, 0, 0, 1, 77, 17)">
          <g clip-path="url(#f675f40ae3)">
            <g clip-path="url(#5d6fb83b38)">
              <g clip-path="url(#28e617fbf7)">
                <g clip-path="url(#72dbe1af41)">
                  <g transform="matrix(1, 0, 0, 1, 6, 7)">
                    <g clip-path="url(#c96f9c3c1b)">
                      <g clip-path="url(#58816e5a0e)">
                        <g clip-path="url(#962455a583)">
                          <g clip-path="url(#de298a35b7)">
                            <path fill="#545454"
                              d="M 12.996094 36.566406 L -5.234375 12.355469 L 18.976562 -5.878906 L 37.210938 18.332031 Z M 12.996094 36.566406 "
                              fill-opacity="1" fill-rule="nonzero" />
                            <text x="12" y="16" font-family="'Proxima Nova', Helvetica, Arial, sans-serif"
                              font-size="6.7" fill="#ffffff" text-anchor="middle" font-weight="normal">
                              <tspan x="16" dy="0">[[GLUCIDES]]</tspan>
                            </text>
                          </g>
                        </g>
                      </g>
                    </g>
                  </g>
                </g>
              </g>
            </g>
            <g clip-path="url(#14d948bf91)">
              <g clip-path="url(#d547794ea2)">
                <g clip-path="url(#fc2863c853)">
                  <g clip-path="url(#eb0e2feb83)">
                    <path stroke-linecap="butt"
                      transform="matrix(-0.597896, -0.794002, 0.794002, -0.597896, 19.157184, 42.409038)" fill="none"
                      stroke-linejoin="miter"
                      d="M 14.413582 -0.000371765 C 6.454411 -0.00156318 -0.000197277 6.453317 0.00175081 14.414852 C 0.00055939 22.374023 6.455439 28.828631 14.414611 28.829823 C 22.376146 28.827874 28.82839 22.376134 28.826442 14.414599 C 28.827633 6.455427 22.372753 0.000819651 14.413582 -0.000371765 Z M 14.413582 -0.000371765 "
                      stroke="#ffffff" stroke-width="0.226001" stroke-opacity="1" stroke-miterlimit="4" />
                  </g>
                </g>
              </g>
            </g>
            <g clip-path="url(#7cfaeb69d3)">
              <g clip-path="url(#c69aa35ff2)">
                <g clip-path="url(#4b8ea35513)">
                  <g clip-path="url(#0fc494f256)">
                  </g>
                </g>
              </g>
            </g>
          </g>
        </g>
        <g transform="matrix(1, 0, 0, 1, 53, 10)">
          <g clip-path="url(#99cb2c0d42)">
            <g clip-path="url(#3581536507)">
              <g clip-path="url(#35ad0444fa)">
                <g clip-path="url(#5525fa9232)">
                  <g transform="matrix(1, 0, 0, 1, 6, 6)">
                    <g clip-path="url(#38ccd15fd9)">
                      <g clip-path="url(#cf41d8ba4a)">
                        <g clip-path="url(#f1136b276b)">
                          <g clip-path="url(#4e7b6cb9e4)">
                            <path fill="#8d8d8d"
                              d="M 13.101562 36.835938 L -5.128906 12.625 L 19.082031 -5.605469 L 37.3125 18.605469 Z M 13.101562 36.835938 "
                              fill-opacity="1" fill-rule="nonzero" />
                          </g>
                        </g>
                      </g>
                    </g>
                  </g>
                </g>
              </g>
            </g>
            <g clip-path="url(#e81fcd9c4c)">
              <g clip-path="url(#392a59236d)">
                <g clip-path="url(#00eeec9df1)">
                  <g transform="matrix(1, 0, 0, 1, 7, 7)">
                    <g clip-path="url(#70b10ae3e1)">
                      <g clip-path="url(#b0e07fadf5)">
                        <g clip-path="url(#bcccd20f6f)">
                          <g clip-path="url(#ad80398de7)">
                            <path fill="#8d8d8d"
                              d="M 12.261719 34.679688 L -4.984375 11.777344 L 17.917969 -5.464844 L 35.164062 17.433594 Z M 12.261719 34.679688 "
                              fill-opacity="1" fill-rule="nonzero" />
                          </g>
                        </g>
                      </g>
                    </g>
                  </g>
                </g>
              </g>
            </g>
            <g clip-path="url(#21e9483c3d)">
              <g clip-path="url(#b53ed1e449)">
                <g clip-path="url(#47ff509ecc)">
                  <g clip-path="url(#532f48b4b2)">
                    <path stroke-linecap="butt"
                      transform="matrix(-0.597896, -0.794002, 0.794002, -0.597896, 19.261548, 41.679728)" fill="none"
                      stroke-linejoin="miter"
                      d="M 14.413845 0.00121713 C 6.454673 0.0000257155 0.0000654654 6.454906 -0.00112595 14.414077 C 0.000822132 22.375612 6.452562 28.827856 14.414098 28.825908 C 22.373269 28.827099 28.827877 22.372219 28.829068 14.413048 C 28.82712 6.451513 22.37538 -0.000730951 14.413845 0.00121713 Z M 14.413845 0.00121713 "
                      stroke="#ffffff" stroke-width="0.226001" stroke-opacity="1" stroke-miterlimit="4" />
                  </g>
                </g>
              </g>
            </g>
            <g clip-path="url(#12a2002a48)">
              <g clip-path="url(#c217f36121)">
                <g clip-path="url(#d5ba974c47)">
                  <g transform="matrix(1, 0, 0, 1, 8, 8)">
                    <g clip-path="url(#24589ee660)">
                      <g clip-path="url(#5d77b5d66a)">
                        <g clip-path="url(#6914c29a9b)">
                          <g clip-path="url(#1dade5951c)">
                            <path fill="#8d8d8d"
                              d="M 11.425781 32.542969 L -4.832031 10.953125 L 16.757812 -5.308594 L 33.019531 16.285156 Z M 11.425781 32.542969 "
                              fill-opacity="1" fill-rule="nonzero" />
                            <text x="12" y="14" font-family="'Proxima Nova', Helvetica, Arial, sans-serif"
                              font-size="6.7" fill="#ffffff" text-anchor="middle" font-weight="normal">
                              <tspan x="14" dy="0">[[LIPIDES]]</tspan>
                            </text>
                          </g>
                        </g>
                      </g>
                    </g>
                  </g>
                </g>
              </g>
            </g>
            <g clip-path="url(#e12560db83)">
              <g clip-path="url(#3b424b9078)">
                <g clip-path="url(#0e177c8597)">
                  <g clip-path="url(#d92f50dc7f)">
                  </g>
                </g>
              </g>
            </g>
          </g>
        </g>
        <g transform="matrix(1, 0, 0, 1, 1, 25)">
          <g clip-path="url(#255ad43869)">
            <g clip-path="url(#44e393f02d)">
              <g clip-path="url(#7aa94ea8d8)">
                <g clip-path="url(#93366832fa)">
                  <g transform="matrix(1, 0, 0, 1, 7, 8)">
                    <g clip-path="url(#963e155daa)">
                      <g clip-path="url(#80a634a5bb)">
                        <g clip-path="url(#a769c33c8c)">
                          <g clip-path="url(#c32a5be3a7)">
                            <path fill="#ffffff"
                              d="M 15.144531 43.371094 L -6.496094 14.632812 L 22.242188 -7.003906 L 43.882812 21.730469 Z M 15.144531 43.371094 "
                              fill-opacity="1" fill-rule="nonzero" />
                            <text x="12" y="17" font-family="'Proxima Nova', Helvetica, Arial, sans-serif"
                              font-size="7.6" fill="#000000" text-anchor="middle" font-weight="normal">
                              <tspan x="18.7" dy="0">[[KCAL]]</tspan>
                            </text>
                          </g>
                        </g>
                      </g>
                    </g>
                  </g>
                </g>
              </g>
            </g>
            <g clip-path="url(#5c85edb099)">
              <g clip-path="url(#6666153403)">
                <g clip-path="url(#145430dfc4)">
                  <g clip-path="url(#684457bb04)">
                    <path stroke-linecap="butt"
                      transform="matrix(-0.709664, -0.942428, 0.942428, -0.709664, 22.334137, 49.999129)" fill="none"
                      stroke-linejoin="miter"
                      d="M 14.414396 0.000745567 C 6.45317 -0.000691481 0.00195058 6.452808 0.000513533 14.414034 C -0.000923515 22.37526 6.452575 28.826479 14.413802 28.827916 C 22.375028 28.829353 28.828239 22.373209 28.827684 14.414628 C 28.829121 6.453402 22.372977 0.000190853 14.414396 0.000745567 Z M 14.414396 0.000745567 "
                      stroke="#000000" stroke-width="0.190407" stroke-opacity="1" stroke-miterlimit="4" />

                  </g>
                </g>
              </g>
            </g>
            <g clip-path="url(#cb38e5788d)">
              <g clip-path="url(#133b72636b)">
                <g clip-path="url(#1b9343681c)">
                  <g clip-path="url(#effc0b15d2)">
                  </g>
                </g>
              </g>
            </g>
          </g>
        </g>
        <g transform="matrix(1, 0, 0, 1, 27, 14)">
          <g clip-path="url(#63ebb67b45)">
            <g clip-path="url(#dfe40e0714)">
              <g clip-path="url(#e1649fb1de)">
                <g clip-path="url(#70e3c67a2d)">
                  <g transform="matrix(1, 0, 0, 1, 7, 7)">
                    <g clip-path="url(#7db9b41ee5)">
                      <g clip-path="url(#d7bde5ccd6)">
                        <g clip-path="url(#f498dbdfa0)">
                          <g clip-path="url(#ac0f1ef16c)">
                            <path fill="#c5c5c3"
                              d="M 12.296875 36.554688 L -5.933594 12.34375 L 18.277344 -5.886719 L 36.507812 18.324219 Z M 12.296875 36.554688 "
                              fill-opacity="1" fill-rule="nonzero" />
                          </g>
                        </g>
                      </g>
                    </g>
                  </g>
                </g>
              </g>
            </g>
            <g clip-path="url(#5427da4df0)">
              <g clip-path="url(#ac9835d676)">
                <g clip-path="url(#c742dc3b89)">
                  <g transform="matrix(1, 0, 0, 1, 7, 7)">
                    <g clip-path="url(#c1eb3a6e6d)">
                      <g clip-path="url(#fc941c7603)">
                        <g clip-path="url(#d476842e32)">
                          <g clip-path="url(#cd37a87d0c)">
                            <path fill="#c5c5c3"
                              d="M 12.457031 35.398438 L -4.789062 12.496094 L 18.113281 -4.746094 L 35.359375 18.152344 Z M 12.457031 35.398438 "
                              fill-opacity="1" fill-rule="nonzero" />
                          </g>
                        </g>
                      </g>
                    </g>
                  </g>
                </g>
              </g>
            </g>
            <g clip-path="url(#2c24a9fef0)">
              <g clip-path="url(#d0a84ec276)">
                <g clip-path="url(#e72c07c8ac)">
                  <g clip-path="url(#d3cdc59217)">
                    <path stroke-linecap="butt"
                      transform="matrix(-0.597896, -0.794002, 0.794002, -0.597896, 19.457309, 42.398992)" fill="none"
                      stroke-linejoin="miter"
                      d="M 14.414529 0.00116733 C 6.455358 -0.0000240896 0.000750054 6.454856 -0.000441362 14.414027 C 0.00150672 22.375562 6.453247 28.827806 14.412418 28.828998 C 22.373954 28.827049 28.826197 22.375309 28.829753 14.412998 C 28.827805 6.451463 22.376064 -0.000780756 14.414529 0.00116733 Z M 14.414529 0.00116733 "
                      stroke="#ffffff" stroke-width="0.226001" stroke-opacity="1" stroke-miterlimit="4" />
                  </g>
                </g>
              </g>
            </g>
            <g clip-path="url(#38418ee7e5)">
              <g clip-path="url(#bf67e4fcc0)">
                <g clip-path="url(#d41cb20884)">
                  <g transform="matrix(1, 0, 0, 1, 8, 8)">
                    <g clip-path="url(#8ba4fcde6f)">
                      <g clip-path="url(#53cbfd637d)">
                        <g clip-path="url(#f0ba94051d)">
                          <g clip-path="url(#df6833093e)">
                            <path fill="#c5c5c3"
                              d="M 11.621094 33.261719 L -4.636719 11.671875 L 16.957031 -4.585938 L 33.214844 17.003906 Z M 11.621094 33.261719 "
                              fill-opacity="1" fill-rule="nonzero" />
                            <text x="12" y="14.5" font-family="'Proxima Nova', Helvetica, Arial, sans-serif"
                              font-size="6.7" fill="#000000" text-anchor="middle" font-weight="normal">
                              <tspan x="14.5" dy="0">[[PROTEINES]]</tspan>
                            </text>
                          </g>
                        </g>
                      </g>
                    </g>
                  </g>
                </g>
              </g>
            </g>
            <g clip-path="url(#f39806cc76)">
              <g clip-path="url(#7025e74778)">
                <g clip-path="url(#13e674b930)">
                  <g clip-path="url(#9e2ac136e1)">
                  </g>
                </g>
              </g>
            </g>
          </g>
        </g>


        <g transform="matrix(1, 0, 0, 1, 105, 56)">
          <g clip-path="url(#1211dfb629)">
            <g fill="#ffffff" fill-opacity="1">
              <g transform="translate(2.165957, 6.306367)">
                <g>
                  <path
                    d="M 0.871094 0.515625 L 1.84375 -1.125 L 3.71875 -0.015625 L 3.957031 -0.414062 L 2.082031 -1.527344 L 2.773438 -2.6875 L 4.683594 -1.554688 L 4.921875 -1.953125 L 2.558594 -3.355469 L 0.421875 0.25 Z M 0.871094 0.515625 " />
                </g>
              </g>
            </g>
            <g fill="#ffffff" fill-opacity="1">
              <g transform="translate(5.481872, 8.106566)">
                <g>
                  <path
                    d="M 1.78125 -3.144531 C 1.945312 -3.089844 2.128906 -3.179688 2.183594 -3.347656 C 2.238281 -3.515625 2.144531 -3.691406 1.980469 -3.746094 C 1.816406 -3.800781 1.636719 -3.714844 1.582031 -3.546875 C 1.527344 -3.378906 1.617188 -3.199219 1.78125 -3.144531 Z M 0.894531 0.296875 L 1.847656 -2.585938 L 1.398438 -2.734375 L 0.449219 0.148438 Z M 0.894531 0.296875 " />
                </g>
              </g>
            </g>
            <g fill="#ffffff" fill-opacity="1">
              <g transform="translate(7.12954, 8.739476)">
                <g>
                  <path
                    d="M 0.9375 0.0898438 L 0.980469 -0.359375 C 1.175781 -0.03125 1.527344 0.222656 1.949219 0.261719 C 2.738281 0.339844 3.351562 -0.207031 3.449219 -1.191406 C 3.539062 -2.152344 3.042969 -2.832031 2.253906 -2.910156 C 1.84375 -2.949219 1.460938 -2.78125 1.183594 -2.476562 L 1.339844 -4.082031 L 0.871094 -4.128906 L 0.46875 0.046875 Z M 1.148438 -2.097656 C 1.335938 -2.347656 1.726562 -2.535156 2.097656 -2.5 C 2.710938 -2.441406 3.023438 -1.90625 2.960938 -1.238281 C 2.894531 -0.566406 2.484375 -0.109375 1.871094 -0.167969 C 1.503906 -0.203125 1.15625 -0.449219 1.015625 -0.730469 Z M 1.148438 -2.097656 " />
                </g>
              </g>
            </g>
            <g fill="#ffffff" fill-opacity="1">
              <g transform="translate(11.108816, 8.976111)">
                <g>
                  <path
                    d="M 0.929688 -0.148438 L 0.59375 -2.269531 C 0.691406 -2.535156 1.046875 -2.832031 1.332031 -2.878906 C 1.40625 -2.890625 1.464844 -2.890625 1.519531 -2.886719 L 1.445312 -3.367188 C 1.035156 -3.300781 0.726562 -3.015625 0.53125 -2.660156 L 0.457031 -3.144531 L -0.0078125 -3.070312 L 0.464844 -0.0742188 Z M 0.929688 -0.148438 " />
                </g>
              </g>
            </g>
            <g fill="#ffffff" fill-opacity="1">
              <g transform="translate(13.547792, 8.634211)">
                <g>
                  <path
                    d="M -0.328125 -1.515625 C 0.046875 -0.640625 0.894531 -0.304688 1.722656 -0.660156 C 2.175781 -0.855469 2.488281 -1.167969 2.644531 -1.5625 L 2.316406 -1.757812 C 2.195312 -1.4375 1.925781 -1.171875 1.609375 -1.035156 C 1.007812 -0.777344 0.449219 -1.054688 0.1875 -1.566406 L 2.445312 -2.539062 L 2.398438 -2.648438 C 2.039062 -3.484375 1.257812 -3.929688 0.414062 -3.566406 C -0.382812 -3.222656 -0.679688 -2.320312 -0.328125 -1.515625 Z M 0.5625 -3.207031 C 1.199219 -3.476562 1.695312 -3.082031 1.882812 -2.671875 L 0.0507812 -1.882812 C -0.109375 -2.320312 -0.03125 -2.949219 0.5625 -3.207031 Z M 0.5625 -3.207031 " />
                </g>
              </g>
            </g>
            <g fill="#ffffff" fill-opacity="1">
              <g transform="translate(17.152362, 6.967844)">
                <g>
                  <path
                    d="M -0.0976562 -0.441406 C 0.347656 -0.386719 0.769531 -0.539062 1.148438 -0.859375 C 1.753906 -1.359375 1.808594 -1.933594 1.480469 -2.328125 C 1.050781 -2.84375 0.488281 -2.570312 0.00390625 -2.324219 C -0.359375 -2.144531 -0.6875 -1.996094 -0.875 -2.222656 C -1.046875 -2.429688 -0.96875 -2.738281 -0.652344 -3.003906 C -0.351562 -3.253906 0.0078125 -3.339844 0.289062 -3.289062 L 0.25 -3.679688 C -0.09375 -3.710938 -0.5 -3.628906 -0.894531 -3.300781 C -1.453125 -2.839844 -1.507812 -2.269531 -1.207031 -1.90625 C -0.804688 -1.421875 -0.269531 -1.6875 0.203125 -1.925781 C 0.582031 -2.109375 0.9375 -2.265625 1.148438 -2.007812 C 1.339844 -1.78125 1.277344 -1.460938 0.917969 -1.164062 C 0.601562 -0.898438 0.175781 -0.808594 -0.125 -0.859375 Z M -0.0976562 -0.441406 " />
                </g>
              </g>
            </g>
          </g>
        </g>

        <g transform="matrix(1, 0, 0, 1, 86, 38)">
          <g clip-path="url(#a2f3254fa9)">
            <g fill="#ffffff" fill-opacity="1">
              <g transform="translate(2.410465, 5.414989)">
                <g>
                  <path
                    d="M 1.765625 -1.167969 C 0.800781 -0.292969 0.800781 1.003906 1.601562 1.890625 C 2.0625 2.398438 2.660156 2.628906 3.242188 2.625 L 4.363281 1.609375 L 3.050781 0.15625 L 2.703125 0.46875 L 3.671875 1.535156 L 3.035156 2.109375 C 2.742188 2.09375 2.285156 1.949219 1.945312 1.578125 C 1.332031 0.898438 1.394531 -0.101562 2.128906 -0.765625 C 2.871094 -1.4375 3.859375 -1.390625 4.476562 -0.710938 C 4.8125 -0.339844 4.9375 0.152344 4.859375 0.574219 L 5.332031 0.710938 C 5.421875 0.128906 5.316406 -0.472656 4.820312 -1.023438 C 4.019531 -1.910156 2.730469 -2.039062 1.765625 -1.167969 Z M 1.765625 -1.167969 " />
                </g>
              </g>
            </g>
            <g fill="#ffffff" fill-opacity="1">
              <g transform="translate(5.852611, 8.844231)">
                <g>
                  <path
                    d="M 0.792969 0.511719 L 3.066406 -3.011719 L 2.667969 -3.265625 L 0.394531 0.253906 Z M 0.792969 0.511719 " />
                </g>
              </g>
            </g>
            <g fill="#ffffff" fill-opacity="1">
              <g transform="translate(7.283689, 9.855358)">
                <g>
                  <path
                    d="M 2.804688 1.042969 L 3.863281 -1.800781 L 3.421875 -1.964844 L 2.640625 0.125 C 2.390625 0.292969 1.988281 0.371094 1.640625 0.242188 C 1.257812 0.0976562 1.058594 -0.140625 1.246094 -0.644531 L 1.941406 -2.515625 L 1.5 -2.679688 L 0.753906 -0.671875 C 0.523438 -0.0546875 0.726562 0.351562 1.324219 0.574219 C 1.746094 0.730469 2.199219 0.644531 2.511719 0.480469 L 2.363281 0.878906 Z M 2.804688 1.042969 " />
                </g>
              </g>
            </g>
            <g fill="#ffffff" fill-opacity="1">
              <g transform="translate(10.974678, 11.133678)">
                <g>
                  <path
                    d="M 0.390625 -1.5 C 0.335938 -0.59375 0.898438 0.132812 1.800781 0.191406 C 2.351562 0.226562 2.695312 0.0234375 2.945312 -0.265625 L 2.648438 -0.574219 C 2.433594 -0.316406 2.167969 -0.207031 1.851562 -0.226562 C 1.207031 -0.269531 0.839844 -0.796875 0.882812 -1.46875 C 0.925781 -2.136719 1.359375 -2.609375 2.003906 -2.566406 C 2.316406 -2.546875 2.566406 -2.410156 2.75 -2.121094 L 3.082031 -2.390625 C 2.871094 -2.707031 2.558594 -2.953125 2.007812 -2.988281 C 1.101562 -3.046875 0.449219 -2.394531 0.390625 -1.5 Z M 0.390625 -1.5 " />
                </g>
              </g>
            </g>
            <g fill="#ffffff" fill-opacity="1">
              <g transform="translate(14.378432, 11.238101)">
                <g>
                  <path
                    d="M 0.214844 -3.605469 C 0.386719 -3.632812 0.511719 -3.792969 0.488281 -3.96875 C 0.464844 -4.144531 0.300781 -4.261719 0.128906 -4.234375 C -0.0390625 -4.214844 -0.164062 -4.054688 -0.140625 -3.882812 C -0.117188 -3.707031 0.046875 -3.585938 0.214844 -3.605469 Z M 0.933594 -0.128906 L 0.519531 -3.136719 L 0.0546875 -3.070312 L 0.46875 -0.0625 Z M 0.933594 -0.128906 " />
                </g>
              </g>
            </g>
            <g fill="#ffffff" fill-opacity="1">
              <g transform="translate(16.136729, 11.081733)">
                <g>
                  <path
                    d="M 2.941406 -1.105469 L 1.464844 -5.03125 L 1.023438 -4.863281 L 1.589844 -3.351562 C 1.246094 -3.578125 0.828125 -3.636719 0.445312 -3.492188 C -0.300781 -3.210938 -0.597656 -2.425781 -0.257812 -1.523438 C 0.0898438 -0.597656 0.828125 -0.230469 1.566406 -0.507812 C 1.96875 -0.660156 2.238281 -0.996094 2.339844 -1.363281 L 2.5 -0.941406 Z M 2.210938 -1.710938 C 2.144531 -1.40625 1.878906 -1.078125 1.523438 -0.945312 C 0.953125 -0.730469 0.4375 -1.066406 0.203125 -1.695312 C -0.0351562 -2.324219 0.128906 -2.921875 0.699219 -3.136719 C 1.050781 -3.269531 1.472656 -3.1875 1.722656 -3 Z M 2.210938 -1.710938 " />
                </g>
              </g>
            </g>
            <g fill="#ffffff" fill-opacity="1">
              <g transform="translate(19.945936, 9.558586)">
                <g>
                  <path
                    d="M -0.722656 -1.371094 C -0.128906 -0.628906 0.78125 -0.53125 1.480469 -1.097656 C 1.867188 -1.40625 2.082031 -1.789062 2.128906 -2.214844 L 1.761719 -2.3125 C 1.726562 -1.972656 1.539062 -1.644531 1.269531 -1.425781 C 0.761719 -1.015625 0.148438 -1.136719 -0.238281 -1.558594 L 1.675781 -3.101562 L 1.601562 -3.191406 C 1.027344 -3.902344 0.160156 -4.121094 -0.554688 -3.546875 C -1.230469 -3.003906 -1.277344 -2.054688 -0.722656 -1.371094 Z M -0.316406 -3.238281 C 0.222656 -3.671875 0.808594 -3.425781 1.097656 -3.078125 L -0.457031 -1.828125 C -0.726562 -2.207031 -0.820312 -2.832031 -0.316406 -3.238281 Z M -0.316406 -3.238281 " />
                </g>
              </g>
            </g>
            <g fill="#ffffff" fill-opacity="1">
              <g transform="translate(22.97145, 6.986559)">
                <g>
                  <path
                    d="M -0.210938 -0.398438 C 0.230469 -0.464844 0.59375 -0.726562 0.878906 -1.136719 C 1.324219 -1.78125 1.222656 -2.347656 0.804688 -2.640625 C 0.25 -3.023438 -0.21875 -2.605469 -0.617188 -2.242188 C -0.921875 -1.96875 -1.195312 -1.738281 -1.4375 -1.90625 C -1.660156 -2.058594 -1.667969 -2.378906 -1.433594 -2.71875 C -1.210938 -3.039062 -0.886719 -3.222656 -0.601562 -3.246094 L -0.746094 -3.613281 C -1.085938 -3.550781 -1.457031 -3.363281 -1.75 -2.9375 C -2.160156 -2.34375 -2.0625 -1.78125 -1.675781 -1.511719 C -1.15625 -1.152344 -0.710938 -1.554688 -0.320312 -1.910156 C -0.00390625 -2.191406 0.292969 -2.433594 0.566406 -2.242188 C 0.8125 -2.074219 0.839844 -1.75 0.574219 -1.367188 C 0.335938 -1.027344 -0.046875 -0.828125 -0.351562 -0.792969 Z M -0.210938 -0.398438 " />
                </g>
              </g>
            </g>
          </g>
        </g>

        <g transform="matrix(1, 0, 0, 1, 64, 33)">
          <g clip-path="url(#f303489784)">
            <g fill="#ffffff" fill-opacity="1">
              <g transform="translate(1.649746, 4.612748)">
                <g>
                  <path
                    d="M 2.199219 1.980469 L 2.511719 1.636719 L 1.0625 0.332031 L 3.558594 -2.4375 L 3.171875 -2.785156 L 0.363281 0.328125 Z M 2.199219 1.980469 " />
                </g>
              </g>
            </g>
            <g fill="#ffffff" fill-opacity="1">
              <g transform="translate(4.334036, 6.867398)">
                <g>
                  <path
                    d="M 2.394531 -2.707031 C 2.546875 -2.617188 2.746094 -2.667969 2.832031 -2.820312 C 2.921875 -2.972656 2.867188 -3.164062 2.714844 -3.253906 C 2.566406 -3.339844 2.375 -3.292969 2.285156 -3.140625 C 2.195312 -2.988281 2.25 -2.792969 2.394531 -2.707031 Z M 0.8125 0.476562 L 2.34375 -2.144531 L 1.9375 -2.382812 L 0.40625 0.238281 Z M 0.8125 0.476562 " />
                </g>
              </g>
            </g>
            <g fill="#ffffff" fill-opacity="1">
              <g transform="translate(5.814031, 7.8283)">
                <g>
                  <path
                    d="M 1.035156 -0.152344 C 1.167969 0.242188 1.457031 0.539062 1.851562 0.664062 C 2.613281 0.902344 3.328125 0.480469 3.621094 -0.453125 C 3.917969 -1.394531 3.570312 -2.136719 2.8125 -2.375 C 2.402344 -2.503906 1.976562 -2.40625 1.675781 -2.179688 L 1.8125 -2.613281 L 1.363281 -2.753906 L 0.101562 1.246094 L 0.550781 1.386719 Z M 3.148438 -0.601562 C 2.945312 0.0390625 2.449219 0.410156 1.867188 0.226562 C 1.511719 0.113281 1.226562 -0.214844 1.148438 -0.515625 L 1.5625 -1.820312 C 1.796875 -2.023438 2.21875 -2.121094 2.570312 -2.011719 C 3.152344 -1.828125 3.351562 -1.242188 3.148438 -0.601562 Z M 3.148438 -0.601562 " />
                </g>
              </g>
            </g>
            <g fill="#ffffff" fill-opacity="1">
              <g transform="translate(9.609411, 8.857747)">
                <g>
                  <path
                    d="M 0.992188 -3.476562 C 1.167969 -3.460938 1.324219 -3.59375 1.335938 -3.769531 C 1.351562 -3.941406 1.21875 -4.09375 1.042969 -4.105469 C 0.875 -4.121094 0.71875 -3.996094 0.707031 -3.820312 C 0.691406 -3.644531 0.824219 -3.488281 0.992188 -3.476562 Z M 0.941406 0.078125 L 1.1875 -2.949219 L 0.71875 -2.988281 L 0.46875 0.0390625 Z M 0.941406 0.078125 " />
                </g>
              </g>
            </g>
            <g fill="#ffffff" fill-opacity="1">
              <g transform="translate(11.3601, 9.086421)">
                <g>
                  <path
                    d="M 3.109375 -0.441406 L 2.519531 -4.59375 L 2.054688 -4.527344 L 2.28125 -2.925781 C 1.992188 -3.222656 1.597656 -3.371094 1.191406 -3.3125 C 0.402344 -3.199219 -0.0585938 -2.5 0.078125 -1.542969 C 0.21875 -0.5625 0.855469 -0.046875 1.640625 -0.15625 C 2.0625 -0.21875 2.398438 -0.488281 2.582031 -0.824219 L 2.644531 -0.375 Z M 2.527344 -1.191406 C 2.398438 -0.90625 2.066406 -0.644531 1.695312 -0.589844 C 1.089844 -0.503906 0.660156 -0.945312 0.5625 -1.609375 C 0.46875 -2.277344 0.761719 -2.824219 1.363281 -2.910156 C 1.738281 -2.964844 2.128906 -2.792969 2.335938 -2.554688 Z M 2.527344 -1.191406 " />
                </g>
              </g>
            </g>
            <g fill="#ffffff" fill-opacity="1">
              <g transform="translate(15.408741, 8.426689)">
                <g>
                  <path
                    d="M -0.410156 -1.496094 C 0.0117188 -0.644531 0.878906 -0.351562 1.683594 -0.75 C 2.128906 -0.96875 2.421875 -1.296875 2.558594 -1.699219 L 2.21875 -1.875 C 2.113281 -1.550781 1.859375 -1.269531 1.550781 -1.117188 C 0.964844 -0.828125 0.394531 -1.078125 0.105469 -1.574219 L 2.308594 -2.664062 L 2.253906 -2.769531 C 1.851562 -3.585938 1.050781 -3.988281 0.226562 -3.582031 C -0.550781 -3.199219 -0.800781 -2.28125 -0.410156 -1.496094 Z M 0.394531 -3.230469 C 1.015625 -3.535156 1.53125 -3.167969 1.738281 -2.765625 L -0.046875 -1.882812 C -0.230469 -2.3125 -0.1875 -2.945312 0.394531 -3.230469 Z M 0.394531 -3.230469 " />
                </g>
              </g>
            </g>
            <g fill="#ffffff" fill-opacity="1">
              <g transform="translate(18.920693, 6.573155)">
                <g>
                  <path
                    d="M -0.121094 -0.4375 C 0.328125 -0.40625 0.738281 -0.582031 1.101562 -0.917969 C 1.679688 -1.449219 1.703125 -2.027344 1.355469 -2.402344 C 0.902344 -2.894531 0.351562 -2.59375 -0.117188 -2.320312 C -0.472656 -2.121094 -0.789062 -1.957031 -0.992188 -2.171875 C -1.175781 -2.371094 -1.113281 -2.683594 -0.808594 -2.96875 C -0.523438 -3.230469 -0.167969 -3.335938 0.117188 -3.300781 L 0.0546875 -3.6875 C -0.289062 -3.703125 -0.691406 -3.597656 -1.070312 -3.25 C -1.597656 -2.757812 -1.625 -2.183594 -1.304688 -1.839844 C -0.878906 -1.378906 -0.355469 -1.671875 0.101562 -1.933594 C 0.472656 -2.136719 0.816406 -2.3125 1.042969 -2.066406 C 1.242188 -1.851562 1.199219 -1.527344 0.855469 -1.210938 C 0.550781 -0.929688 0.132812 -0.816406 -0.171875 -0.851562 Z M -0.121094 -0.4375 " />
                </g>
              </g>
            </g>
          </g>
        </g>
        <g transform="matrix(1, 0, 0, 1, 36, 37)">
          <g clip-path="url(#c64f98c637)">
            <g fill="#000000" fill-opacity="1">
              <g transform="translate(2.579531, 3.28146)">
                <g>
                  <path
                    d="M 0.503906 0.777344 L 1.789062 -0.0546875 L 2.367188 0.839844 C 2.785156 1.480469 3.46875 1.5625 3.996094 1.222656 C 4.523438 0.878906 4.734375 0.226562 4.3125 -0.421875 L 3.472656 -1.71875 L 0.246094 0.378906 Z M 3.726562 0.804688 C 3.363281 1.039062 2.945312 0.941406 2.695312 0.5625 L 2.144531 -0.285156 L 3.375 -1.082031 L 3.925781 -0.238281 C 4.171875 0.144531 4.089844 0.570312 3.726562 0.804688 Z M 3.726562 0.804688 " />
                </g>
              </g>
            </g>
            <g fill="#000000" fill-opacity="1">
              <g transform="translate(4.727638, 6.332549)">
                <g>
                  <path
                    d="M 0.640625 0.582031 L 1.96875 -0.875 C 2.214844 -0.957031 2.628906 -0.875 2.824219 -0.695312 C 2.875 -0.648438 2.910156 -0.609375 2.941406 -0.566406 L 3.242188 -0.894531 C 2.960938 -1.148438 2.578125 -1.210938 2.210938 -1.144531 L 2.515625 -1.476562 L 2.195312 -1.769531 L 0.320312 0.292969 Z M 0.640625 0.582031 " />
                </g>
              </g>
            </g>
            <g fill="#000000" fill-opacity="1">
              <g transform="translate(6.372163, 7.888916)">
                <g>
                  <path
                    d="M 1.425781 0.832031 C 2.175781 1.230469 2.953125 0.898438 3.328125 0.183594 C 3.707031 -0.53125 3.542969 -1.355469 2.792969 -1.75 C 2.042969 -2.148438 1.269531 -1.820312 0.894531 -1.105469 C 0.515625 -0.394531 0.675781 0.4375 1.425781 0.832031 Z M 1.605469 0.492188 C 1.082031 0.214844 1.023438 -0.390625 1.289062 -0.894531 C 1.554688 -1.394531 2.089844 -1.6875 2.613281 -1.410156 C 3.136719 -1.132812 3.191406 -0.527344 2.925781 -0.03125 C 2.660156 0.476562 2.132812 0.769531 1.605469 0.492188 Z M 1.605469 0.492188 " />
                </g>
              </g>
            </g>
            <g fill="#000000" fill-opacity="1">
              <g transform="translate(9.637164, 9.46465)">
                <g>
                  <path
                    d="M 1.085938 0.34375 C 1.332031 0.40625 1.5 0.371094 1.632812 0.296875 L 1.585938 -0.046875 C 1.515625 0 1.390625 0.0195312 1.273438 -0.0078125 C 1.089844 -0.0546875 1.035156 -0.222656 1.085938 -0.421875 L 1.507812 -2.101562 L 2.054688 -1.964844 L 2.148438 -2.335938 L 1.597656 -2.472656 L 1.785156 -3.210938 L 1.363281 -3.316406 L 1.179688 -2.578125 L 0.730469 -2.6875 L 0.640625 -2.320312 L 1.085938 -2.207031 L 0.644531 -0.4375 C 0.542969 -0.0351562 0.6875 0.242188 1.085938 0.34375 Z M 1.085938 0.34375 " />
                </g>
              </g>
            </g>
            <g fill="#000000" fill-opacity="1">
              <g transform="translate(11.601377, 10.009978)">
                <g>
                  <path
                    d="M 2.785156 -4.019531 L 2.335938 -4.023438 L 1.476562 -3.199219 L 1.808594 -3.195312 Z M 0.277344 -1.394531 C 0.273438 -0.523438 0.863281 0.0742188 1.691406 0.078125 C 2.144531 0.0820312 2.519531 -0.0664062 2.800781 -0.339844 L 2.59375 -0.625 C 2.371094 -0.402344 2.050781 -0.277344 1.730469 -0.277344 C 1.132812 -0.28125 0.765625 -0.722656 0.734375 -1.246094 L 2.988281 -1.234375 L 2.988281 -1.34375 C 2.996094 -2.179688 2.503906 -2.839844 1.660156 -2.84375 C 0.863281 -2.851562 0.285156 -2.203125 0.277344 -1.394531 Z M 1.652344 -2.488281 C 2.285156 -2.484375 2.5625 -1.96875 2.5625 -1.554688 L 0.734375 -1.566406 C 0.761719 -1.992188 1.058594 -2.492188 1.652344 -2.488281 Z M 1.652344 -2.488281 " />
                </g>
              </g>
            </g>
            <g fill="#000000" fill-opacity="1">
              <g transform="translate(15.141068, 9.890813)">
                <g>
                  <path
                    d="M -0.0585938 -3.316406 C 0.0976562 -3.351562 0.199219 -3.507812 0.164062 -3.664062 C 0.128906 -3.824219 -0.0273438 -3.917969 -0.183594 -3.886719 C -0.335938 -3.851562 -0.4375 -3.699219 -0.40625 -3.542969 C -0.371094 -3.382812 -0.210938 -3.28125 -0.0585938 -3.316406 Z M 0.84375 -0.183594 L 0.253906 -2.90625 L -0.167969 -2.8125 L 0.421875 -0.09375 Z M 0.84375 -0.183594 " />
                </g>
              </g>
            </g>
            <g fill="#000000" fill-opacity="1">
              <g transform="translate(16.726338, 9.617809)">
                <g>
                  <path
                    d="M 2.496094 -1.148438 L 1.679688 -2.921875 C 1.425781 -3.472656 1.023438 -3.613281 0.496094 -3.371094 C 0.117188 -3.195312 -0.128906 -2.816406 -0.207031 -2.527344 L -0.378906 -2.890625 L -0.769531 -2.710938 L 0.394531 -0.179688 L 0.785156 -0.363281 L -0.0625 -2.210938 C -0.0117188 -2.484375 0.195312 -2.808594 0.503906 -2.949219 C 0.84375 -3.105469 1.136719 -3.066406 1.339844 -2.621094 L 2.101562 -0.964844 Z M 2.496094 -1.148438 " />
                </g>
              </g>
            </g>
            <g fill="#000000" fill-opacity="1">
              <g transform="translate(19.986688, 8.04968)">
                <g>
                  <path
                    d="M -0.742188 -1.210938 C -0.15625 -0.570312 0.683594 -0.535156 1.292969 -1.089844 C 1.628906 -1.398438 1.804688 -1.761719 1.820312 -2.152344 L 1.476562 -2.222656 C 1.46875 -1.90625 1.3125 -1.597656 1.082031 -1.382812 C 0.636719 -0.976562 0.0703125 -1.050781 -0.308594 -1.414062 L 1.351562 -2.9375 L 1.277344 -3.019531 C 0.714844 -3.636719 -0.0976562 -3.785156 -0.71875 -3.214844 C -1.304688 -2.675781 -1.289062 -1.808594 -0.742188 -1.210938 Z M -0.480469 -2.949219 C -0.0117188 -3.375 0.539062 -3.183594 0.824219 -2.882812 L -0.523438 -1.648438 C -0.796875 -1.976562 -0.917969 -2.546875 -0.480469 -2.949219 Z M -0.480469 -2.949219 " />
                </g>
              </g>
            </g>
            <g fill="#000000" fill-opacity="1">
              <g transform="translate(22.606844, 5.516298)">
                <g>
                  <path
                    d="M -0.21875 -0.351562 C 0.183594 -0.441406 0.503906 -0.699219 0.738281 -1.089844 C 1.109375 -1.707031 0.980469 -2.222656 0.582031 -2.464844 C 0.0507812 -2.78125 -0.355469 -2.375 -0.699219 -2.015625 C -0.960938 -1.75 -1.199219 -1.523438 -1.429688 -1.660156 C -1.644531 -1.789062 -1.667969 -2.082031 -1.472656 -2.40625 C -1.289062 -2.714844 -1.003906 -2.898438 -0.742188 -2.9375 L -0.894531 -3.265625 C -1.203125 -3.1875 -1.53125 -2.996094 -1.773438 -2.589844 C -2.117188 -2.019531 -1.992188 -1.507812 -1.621094 -1.285156 C -1.128906 -0.988281 -0.742188 -1.382812 -0.40625 -1.730469 C -0.132812 -2.003906 0.125 -2.246094 0.386719 -2.089844 C 0.621094 -1.949219 0.664062 -1.652344 0.445312 -1.289062 C 0.25 -0.960938 -0.0898438 -0.753906 -0.367188 -0.707031 Z M -0.21875 -0.351562 " />
                </g>
              </g>
            </g>
          </g>
        </g>

        <g transform="matrix(1, 0, 0, 1, 19, 51)">
          <g clip-path="url(#0e3325ecea)">
            <g fill="#000000" fill-opacity="1">
              <g transform="translate(0.758951, 8.005006)">
                <g>
                  <path
                    d="M 4.46875 0 L 2.15625 -2.675781 L 4.285156 -5.101562 L 3.488281 -5.101562 L 1.230469 -2.464844 L 1.230469 -5.101562 L 0.597656 -5.101562 L 0.597656 0 L 1.230469 0 L 1.230469 -1.714844 L 1.742188 -2.292969 L 3.679688 0 Z M 4.46875 0 " />
                </g>
              </g>
            </g>
            <g fill="#000000" fill-opacity="1">
              <g transform="translate(5.096172, 8.005006)">
                <g>
                  <path
                    d="M 0.359375 -1.851562 C 0.359375 -0.75 1.101562 0.0898438 2.203125 0.0898438 C 2.875 0.0898438 3.273438 -0.183594 3.558594 -0.550781 L 3.175781 -0.902344 C 2.929688 -0.574219 2.617188 -0.421875 2.234375 -0.421875 C 1.445312 -0.421875 0.957031 -1.03125 0.957031 -1.851562 C 0.957031 -2.667969 1.445312 -3.273438 2.234375 -3.273438 C 2.617188 -3.273438 2.929688 -3.128906 3.175781 -2.792969 L 3.558594 -3.144531 C 3.273438 -3.511719 2.875 -3.785156 2.203125 -3.785156 C 1.101562 -3.785156 0.359375 -2.945312 0.359375 -1.851562 Z M 0.359375 -1.851562 " />
                </g>
              </g>
            </g>
            <g fill="#000000" fill-opacity="1">
              <g transform="translate(8.88264, 8.005006)">
                <g>
                  <path
                    d="M 3.457031 0 L 3.457031 -2.539062 C 3.457031 -3.433594 2.808594 -3.785156 2.027344 -3.785156 C 1.421875 -3.785156 0.949219 -3.585938 0.550781 -3.175781 L 0.820312 -2.777344 C 1.148438 -3.128906 1.507812 -3.289062 1.949219 -3.289062 C 2.484375 -3.289062 2.882812 -3.007812 2.882812 -2.507812 L 2.882812 -1.84375 C 2.585938 -2.1875 2.164062 -2.347656 1.660156 -2.347656 C 1.03125 -2.347656 0.367188 -1.957031 0.367188 -1.132812 C 0.367188 -0.328125 1.03125 0.0898438 1.660156 0.0898438 C 2.15625 0.0898438 2.578125 -0.0859375 2.882812 -0.421875 L 2.882812 0 Z M 2.882812 -0.78125 C 2.660156 -0.472656 2.273438 -0.320312 1.867188 -0.320312 C 1.332031 -0.320312 0.957031 -0.65625 0.957031 -1.125 C 0.957031 -1.597656 1.332031 -1.933594 1.867188 -1.933594 C 2.273438 -1.933594 2.660156 -1.78125 2.882812 -1.476562 Z M 2.882812 -0.78125 " />
                </g>
              </g>
            </g>
            <g fill="#000000" fill-opacity="1">
              <g transform="translate(12.91389, 8.005006)">
                <g>
                  <path d="M 1.148438 0 L 1.148438 -5.101562 L 0.574219 -5.101562 L 0.574219 0 Z M 1.148438 0 " />
                </g>
              </g>
            </g>
          </g>
        </g>

      </g>
    </g>
  </g>
  <g transform="scale(0.35) translate(0, 250)">
    <g>
      <text font-family="Arial, Georgia, serif" font-size="30" font-weight="bold">
        <textPath href="#textCurve" startOffset="50%" text-anchor="middle">
          <!-- On passe par exemple de stroke-width="28" à "48" pour l'élargir -->
          <tspan stroke="#303f0c" stroke-width="35" stroke-linejoin="round" fill="#303f0c">[[FOOD_LABEL_BG]]</tspan>
        </textPath>
      </text>

      <text font-family="Alice, Georgia, serif" font-size="28" font-weight="bold" fill="white">
        <textPath href="#textCurve" startOffset="50%" text-anchor="middle">
          [[FOOD_LABEL]]
        </textPath>
      </text>
    </g>
  </g>
</svg>